<svg width="607" height="334" viewBox="0 0 607 334" fill="none" xmlns="http://www.w3.org/2000/svg">
<path fill-rule="evenodd" clip-rule="evenodd" d="M52 2C24.3858 2 2 24.3857 2 52V245.833C2 273.447 24.3858 295.833 52 295.833H485.617C477.694 318.939 461.004 329.432 451.433 332C499.239 332 523.685 314.254 534.955 295.833H555C582.614 295.833 605 273.447 605 245.833V52C605 24.3858 582.614 2 555 2H52Z" fill="#FBF3EA"/>
<path d="M485.617 295.833L487.036 296.319L487.718 294.333H485.617V295.833ZM451.433 332L451.044 330.551L451.433 333.5V332ZM534.955 295.833V294.333H534.114L533.676 295.05L534.955 295.833ZM3.5 52C3.5 25.2142 25.2142 3.5 52 3.5V0.5C23.5573 0.5 0.5 23.5573 0.5 52H3.5ZM3.5 245.833V52H0.5V245.833H3.5ZM52 294.333C25.2142 294.333 3.5 272.619 3.5 245.833H0.5C0.5 274.275 23.5574 297.333 52 297.333V294.333ZM485.617 294.333H52V297.333H485.617V294.333ZM484.199 295.346C476.444 317.961 460.153 328.107 451.044 330.551L451.821 333.448C461.855 330.757 478.945 319.917 487.036 296.319L484.199 295.346ZM451.433 333.5C499.647 333.5 524.638 315.571 536.235 296.616L533.676 295.05C522.733 312.936 498.83 330.5 451.433 330.5V333.5ZM555 294.333H534.955V297.333H555V294.333ZM603.5 245.833C603.5 272.619 581.786 294.333 555 294.333V297.333C583.443 297.333 606.5 274.275 606.5 245.833H603.5ZM603.5 52V245.833H606.5V52H603.5ZM555 3.5C581.786 3.5 603.5 25.2142 603.5 52H606.5C606.5 23.5573 583.443 0.5 555 0.5V3.5ZM52 3.5H555V0.5H52V3.5Z" fill="black"/>
<path d="M120.5 55.5988C141.664 55.5988 162.128 63.5699 178.18 78.0666L120.5 148.608V55.5988Z" fill="#FF6534"/>
<path d="M207 148.608C207 198.966 168.18 239.618 120.5 239.618C72.8199 239.618 34 198.966 34 148.608C34 98.2503 72.8199 57.5988 120.5 57.5988C168.18 57.5988 207 98.2503 207 148.608Z" stroke="black" stroke-width="4"/>
<line x1="41.2549" y1="148.716" x2="49.353" y2="148.716" stroke="black"/>
<line x1="119.422" y1="231.891" x2="119.422" y2="223.381" stroke="black"/>
<line y1="-0.5" x2="8.22936" y2="-0.5" transform="matrix(0.815712 -0.578459 0.540275 0.841488 54.673 191.718)" stroke="black"/>
<line y1="-0.5" x2="8.39513" y2="-0.5" transform="matrix(0.514992 -0.857195 0.833238 0.552915 80.6261 219.632)" stroke="black"/>
<line x1="198.539" y1="149.716" x2="190.441" y2="149.716" stroke="black"/>
<line y1="-0.5" x2="8.38377" y2="-0.5" transform="matrix(-0.540275 -0.841488 0.815712 -0.578459 160.314 217.79)" stroke="black"/>
<line y1="-0.5" x2="8.21777" y2="-0.5" transform="matrix(-0.833238 -0.552915 0.514992 -0.857195 186.875 190.514)" stroke="black"/>
<line x1="121.433" y1="67.7568" x2="121.433" y2="76.2675" stroke="black"/>
<line y1="-0.5" x2="8.22936" y2="-0.5" transform="matrix(-0.815712 0.578459 -0.540275 -0.841488 186.182 107.93)" stroke="black"/>
<line y1="-0.5" x2="8.39513" y2="-0.5" transform="matrix(-0.514992 0.857195 -0.833238 -0.552915 160.229 80.0158)" stroke="black"/>
<line y1="-0.5" x2="8.38376" y2="-0.5" transform="matrix(0.540275 0.841488 -0.815712 0.578459 80.5406 81.8585)" stroke="black"/>
<line y1="-0.5" x2="8.21777" y2="-0.5" transform="matrix(0.833238 0.552915 -0.514992 0.857195 53.9802 109.134)" stroke="black"/>
<path d="M260.8 111.599V85.0788C259.52 86.1988 258.14 87.1788 256.66 88.0188C255.18 88.8188 253.62 89.3388 251.98 89.5788L251.2 78.3588C252.84 78.1588 254.48 77.7388 256.12 77.0988C257.76 76.4588 259.22 75.6788 260.5 74.7588C261.78 73.8388 262.72 72.9188 263.32 71.9988H274.18V111.599H260.8ZM286.719 99.2388C289.079 99.2388 290.899 99.7988 292.179 100.919C293.459 102.039 294.099 103.619 294.099 105.659C294.099 107.699 293.459 109.279 292.179 110.399C290.899 111.519 289.079 112.079 286.719 112.079C284.399 112.079 282.579 111.519 281.259 110.399C279.979 109.279 279.339 107.699 279.339 105.659C279.339 103.619 279.979 102.039 281.259 100.919C282.579 99.7988 284.399 99.2388 286.719 99.2388ZM301.288 111.599V85.0788C300.008 86.1988 298.628 87.1788 297.148 88.0188C295.668 88.8188 294.108 89.3388 292.468 89.5788L291.688 78.3588C293.328 78.1588 294.968 77.7388 296.608 77.0988C298.248 76.4588 299.708 75.6788 300.988 74.7588C302.268 73.8388 303.208 72.9188 303.808 71.9988H314.668V111.599H301.288ZM339.267 71.3988C341.427 71.3988 343.487 71.6788 345.447 72.2388C347.407 72.7988 349.127 73.7388 350.607 75.0588C352.127 76.3788 353.207 78.1788 353.847 80.4588L342.747 85.6788C342.187 83.2388 340.747 82.0188 338.427 82.0188C336.867 82.0188 335.547 82.6588 334.467 83.9388C333.427 85.2188 332.907 87.2988 332.907 90.1788V91.0788L332.967 91.6788C333.647 90.3588 334.847 89.2988 336.567 88.4988C338.287 87.6588 340.067 87.2388 341.907 87.2388C344.227 87.2388 346.307 87.6988 348.147 88.6188C349.987 89.4988 351.447 90.7988 352.527 92.5188C353.647 94.1988 354.207 96.2588 354.207 98.6988C354.207 101.459 353.547 103.859 352.227 105.899C350.947 107.899 349.127 109.459 346.767 110.579C344.447 111.659 341.707 112.199 338.547 112.199C335.067 112.199 331.947 111.539 329.187 110.219C326.427 108.859 324.227 106.739 322.587 103.859C320.987 100.939 320.187 97.1188 320.187 92.3988C320.187 87.5188 321.027 83.5388 322.707 80.4588C324.427 77.3788 326.727 75.0988 329.607 73.6188C332.487 72.1388 335.707 71.3988 339.267 71.3988ZM338.307 95.6988C337.347 95.6988 336.487 95.9988 335.727 96.5988C334.967 97.1588 334.587 97.9788 334.587 99.0588C334.587 100.139 334.967 100.979 335.727 101.579C336.487 102.139 337.347 102.419 338.307 102.419C340.707 102.419 341.907 101.299 341.907 99.0588C341.907 96.8188 340.707 95.6988 338.307 95.6988ZM357.692 111.599V69.5988H371.492V87.7188C372.292 85.5588 373.472 83.8988 375.032 82.7388C376.632 81.5788 378.572 80.9988 380.852 80.9988C383.812 80.9988 386.112 81.8788 387.752 83.6388C389.432 85.3988 390.272 87.8788 390.272 91.0788V111.599H376.472V94.6788C376.472 93.3188 376.292 92.3988 375.932 91.9188C375.612 91.3988 375.092 91.1388 374.372 91.1388C372.452 91.1388 371.492 92.7188 371.492 95.8788V111.599H357.692Z" fill="black"/>
<path d="M260.59 137.366C263.69 137.366 266.06 138.226 267.7 139.946C269.36 141.666 270.19 144.106 270.19 147.266C270.19 150.426 269.36 152.866 267.7 154.586C266.06 156.306 263.69 157.166 260.59 157.166H252.19V137.366H260.59ZM260.08 153.266C261.76 153.266 262.98 152.766 263.74 151.766C264.52 150.746 264.91 149.246 264.91 147.266C264.91 145.286 264.52 143.796 263.74 142.796C262.98 141.776 261.76 141.266 260.08 141.266H257.35V153.266H260.08ZM275.855 140.426C274.815 140.426 274.055 140.236 273.575 139.856C273.115 139.456 272.885 138.836 272.885 137.996C272.885 137.136 273.115 136.516 273.575 136.136C274.055 135.736 274.815 135.536 275.855 135.536C276.875 135.536 277.625 135.736 278.105 136.136C278.585 136.516 278.825 137.136 278.825 137.996C278.825 138.836 278.585 139.456 278.105 139.856C277.625 140.236 276.875 140.426 275.855 140.426ZM278.405 142.166V157.166H273.305V142.166H278.405ZM301.125 142.166V145.796H296.655V151.826C296.655 152.546 296.825 153.066 297.165 153.386C297.525 153.686 298.015 153.836 298.635 153.836C299.115 153.836 299.525 153.786 299.865 153.686C300.205 153.566 300.525 153.396 300.825 153.176L301.365 156.326C300.865 156.666 300.225 156.946 299.445 157.166C298.685 157.366 297.915 157.466 297.135 157.466C295.415 157.466 294.055 157.106 293.055 156.386C292.075 155.646 291.575 154.406 291.555 152.666V145.796H288.975V142.166H291.555V138.806L296.655 137.396V142.166H301.125ZM303.48 157.166V142.166H307.98L308.19 145.406C308.55 144.306 309.1 143.446 309.84 142.826C310.6 142.186 311.57 141.866 312.75 141.866C313.13 141.866 313.45 141.906 313.71 141.986C313.99 142.046 314.21 142.116 314.37 142.196L313.86 146.396C313.66 146.336 313.4 146.276 313.08 146.216C312.78 146.156 312.41 146.126 311.97 146.126C311.05 146.126 310.25 146.416 309.57 146.996C308.91 147.576 308.58 148.446 308.58 149.606V157.166H303.48ZM324.565 147.656C324.565 146.956 324.365 146.406 323.965 146.006C323.585 145.586 323.065 145.376 322.405 145.376C321.745 145.376 321.175 145.546 320.695 145.886C320.235 146.206 319.915 146.786 319.735 147.626L315.415 146.606C315.695 145.166 316.435 144.016 317.635 143.156C318.835 142.296 320.525 141.866 322.705 141.866C324.905 141.866 326.605 142.356 327.805 143.336C329.025 144.296 329.635 145.706 329.635 147.566V153.056C329.635 153.836 329.985 154.226 330.685 154.226C331.045 154.226 331.335 154.186 331.555 154.106L331.255 157.016C330.655 157.296 329.925 157.436 329.065 157.436C328.125 157.436 327.315 157.256 326.635 156.896C325.955 156.516 325.495 155.946 325.255 155.186C324.835 155.966 324.165 156.546 323.245 156.926C322.345 157.286 321.385 157.466 320.365 157.466C318.825 157.466 317.595 157.116 316.675 156.416C315.775 155.696 315.325 154.666 315.325 153.326C315.325 152.246 315.645 151.356 316.285 150.656C316.945 149.936 317.975 149.436 319.375 149.156L324.565 148.076V147.656ZM320.365 152.846C320.365 153.286 320.525 153.616 320.845 153.836C321.165 154.056 321.545 154.166 321.985 154.166C322.665 154.166 323.265 153.966 323.785 153.566C324.305 153.146 324.565 152.496 324.565 151.616V150.776L322.135 151.286C321.535 151.406 321.085 151.586 320.785 151.826C320.505 152.046 320.365 152.386 320.365 152.846ZM339.868 157.466C338.368 157.466 336.978 157.226 335.698 156.746C334.418 156.246 333.348 155.536 332.488 154.616L334.888 151.796C335.388 152.436 336.048 152.976 336.868 153.416C337.708 153.836 338.638 154.046 339.658 154.046C340.278 154.046 340.788 153.956 341.188 153.776C341.588 153.596 341.788 153.316 341.788 152.936C341.788 152.676 341.688 152.456 341.488 152.276C341.288 152.096 340.888 151.946 340.288 151.826L338.188 151.406C336.308 151.026 334.968 150.466 334.168 149.726C333.388 148.966 332.998 147.976 332.998 146.756C332.998 145.936 333.248 145.156 333.748 144.416C334.248 143.676 335.018 143.066 336.058 142.586C337.098 142.106 338.428 141.866 340.048 141.866C343.148 141.866 345.408 142.726 346.828 144.446L344.398 147.206C343.918 146.606 343.298 146.136 342.538 145.796C341.778 145.456 341.018 145.286 340.258 145.286C338.798 145.286 338.068 145.656 338.068 146.396C338.068 146.656 338.188 146.886 338.428 147.086C338.688 147.286 339.158 147.446 339.838 147.566L342.568 148.106C344.108 148.406 345.218 148.926 345.898 149.666C346.578 150.386 346.918 151.266 346.918 152.306C346.918 153.766 346.328 154.996 345.148 155.996C343.988 156.976 342.228 157.466 339.868 157.466ZM349.564 163.466V142.166H354.154L354.304 145.196C354.724 144.196 355.354 143.396 356.194 142.796C357.054 142.176 358.064 141.866 359.224 141.866C361.064 141.866 362.544 142.546 363.664 143.906C364.804 145.266 365.374 147.166 365.374 149.606C365.374 152.086 364.794 154.016 363.634 155.396C362.494 156.776 361.004 157.466 359.164 157.466C358.084 157.466 357.164 157.206 356.404 156.686C355.644 156.146 355.064 155.446 354.664 154.586V163.466H349.564ZM357.424 153.716C358.304 153.716 358.994 153.396 359.494 152.756C359.994 152.096 360.244 151.066 360.244 149.666C360.244 148.266 359.994 147.246 359.494 146.606C359.014 145.946 358.334 145.616 357.454 145.616C356.594 145.616 355.914 145.966 355.414 146.666C354.914 147.346 354.664 148.346 354.664 149.666C354.664 150.926 354.904 151.916 355.384 152.636C355.864 153.356 356.544 153.716 357.424 153.716ZM375.513 141.866C377.093 141.866 378.473 142.176 379.653 142.796C380.853 143.416 381.783 144.306 382.443 145.466C383.123 146.626 383.463 148.026 383.463 149.666C383.463 151.306 383.123 152.706 382.443 153.866C381.783 155.026 380.853 155.916 379.653 156.536C378.473 157.156 377.093 157.466 375.513 157.466C373.953 157.466 372.573 157.156 371.373 156.536C370.193 155.916 369.263 155.026 368.583 153.866C367.923 152.706 367.593 151.306 367.593 149.666C367.593 148.026 367.923 146.626 368.583 145.466C369.263 144.306 370.193 143.416 371.373 142.796C372.573 142.176 373.953 141.866 375.513 141.866ZM375.513 145.496C374.633 145.496 373.943 145.826 373.443 146.486C372.963 147.126 372.723 148.186 372.723 149.666C372.723 151.126 372.963 152.186 373.443 152.846C373.943 153.506 374.633 153.836 375.513 153.836C376.413 153.836 377.103 153.506 377.583 152.846C378.083 152.186 378.333 151.126 378.333 149.666C378.333 148.186 378.083 147.126 377.583 146.486C377.103 145.826 376.413 145.496 375.513 145.496ZM386.332 157.166V142.166H390.832L391.042 145.406C391.402 144.306 391.952 143.446 392.692 142.826C393.452 142.186 394.422 141.866 395.602 141.866C395.982 141.866 396.302 141.906 396.562 141.986C396.842 142.046 397.062 142.116 397.222 142.196L396.712 146.396C396.512 146.336 396.252 146.276 395.932 146.216C395.632 146.156 395.262 146.126 394.822 146.126C393.902 146.126 393.102 146.416 392.422 146.996C391.762 147.576 391.432 148.446 391.432 149.606V157.166H386.332ZM409.611 142.166V145.796H405.141V151.826C405.141 152.546 405.311 153.066 405.651 153.386C406.011 153.686 406.501 153.836 407.121 153.836C407.601 153.836 408.011 153.786 408.351 153.686C408.691 153.566 409.011 153.396 409.311 153.176L409.851 156.326C409.351 156.666 408.711 156.946 407.931 157.166C407.171 157.366 406.401 157.466 405.621 157.466C403.901 157.466 402.541 157.106 401.541 156.386C400.561 155.646 400.061 154.406 400.041 152.666V145.796H397.461V142.166H400.041V138.806L405.141 137.396V142.166H409.611ZM419.107 141.866C420.687 141.866 422.067 142.176 423.247 142.796C424.447 143.416 425.377 144.306 426.037 145.466C426.717 146.626 427.057 148.026 427.057 149.666C427.057 151.306 426.717 152.706 426.037 153.866C425.377 155.026 424.447 155.916 423.247 156.536C422.067 157.156 420.687 157.466 419.107 157.466C417.547 157.466 416.167 157.156 414.967 156.536C413.787 155.916 412.857 155.026 412.177 153.866C411.517 152.706 411.187 151.306 411.187 149.666C411.187 148.026 411.517 146.626 412.177 145.466C412.857 144.306 413.787 143.416 414.967 142.796C416.167 142.176 417.547 141.866 419.107 141.866ZM419.107 145.496C418.227 145.496 417.537 145.826 417.037 146.486C416.557 147.126 416.317 148.186 416.317 149.666C416.317 151.126 416.557 152.186 417.037 152.846C417.537 153.506 418.227 153.836 419.107 153.836C420.007 153.836 420.697 153.506 421.177 152.846C421.677 152.186 421.927 151.126 421.927 149.666C421.927 148.186 421.677 147.126 421.177 146.486C420.697 145.826 420.007 145.496 419.107 145.496ZM446.88 147.656C446.88 146.956 446.68 146.406 446.28 146.006C445.9 145.586 445.38 145.376 444.72 145.376C444.06 145.376 443.49 145.546 443.01 145.886C442.55 146.206 442.23 146.786 442.05 147.626L437.73 146.606C438.01 145.166 438.75 144.016 439.95 143.156C441.15 142.296 442.84 141.866 445.02 141.866C447.22 141.866 448.92 142.356 450.12 143.336C451.34 144.296 451.95 145.706 451.95 147.566V153.056C451.95 153.836 452.3 154.226 453 154.226C453.36 154.226 453.65 154.186 453.87 154.106L453.57 157.016C452.97 157.296 452.24 157.436 451.38 157.436C450.44 157.436 449.63 157.256 448.95 156.896C448.27 156.516 447.81 155.946 447.57 155.186C447.15 155.966 446.48 156.546 445.56 156.926C444.66 157.286 443.7 157.466 442.68 157.466C441.14 157.466 439.91 157.116 438.99 156.416C438.09 155.696 437.64 154.666 437.64 153.326C437.64 152.246 437.96 151.356 438.6 150.656C439.26 149.936 440.29 149.436 441.69 149.156L446.88 148.076V147.656ZM442.68 152.846C442.68 153.286 442.84 153.616 443.16 153.836C443.48 154.056 443.86 154.166 444.3 154.166C444.98 154.166 445.58 153.966 446.1 153.566C446.62 153.146 446.88 152.496 446.88 151.616V150.776L444.45 151.286C443.85 151.406 443.4 151.586 443.1 151.826C442.82 152.046 442.68 152.386 442.68 152.846ZM460.923 135.806V152.066C460.923 152.726 461.033 153.196 461.253 153.476C461.473 153.756 461.843 153.896 462.363 153.896C462.663 153.896 462.913 153.876 463.113 153.836C463.313 153.796 463.553 153.736 463.833 153.656L463.503 156.716C463.143 156.936 462.673 157.116 462.093 157.256C461.513 157.396 460.943 157.466 460.383 157.466C458.783 157.466 457.623 157.096 456.903 156.356C456.183 155.616 455.823 154.406 455.823 152.726V135.806H460.923ZM483.231 153.836C484.971 153.836 486.301 154.206 487.221 154.946C488.161 155.666 488.631 156.706 488.631 158.066C488.631 159.946 487.881 161.336 486.381 162.236C484.901 163.156 482.901 163.616 480.381 163.616C477.661 163.616 475.701 163.276 474.501 162.596C473.301 161.916 472.701 160.996 472.701 159.836C472.701 159.156 472.921 158.576 473.361 158.096C473.821 157.616 474.551 157.286 475.551 157.106C474.091 156.566 473.361 155.556 473.361 154.076C473.361 153.376 473.571 152.766 473.991 152.246C474.411 151.706 474.991 151.316 475.731 151.076C474.131 150.196 473.331 148.826 473.331 146.966C473.331 145.346 473.961 144.096 475.221 143.216C476.501 142.316 478.291 141.866 480.591 141.866C481.751 141.866 482.801 141.986 483.741 142.226C483.821 141.506 484.021 140.836 484.341 140.216C484.681 139.596 485.141 139.096 485.721 138.716C486.321 138.316 487.051 138.116 487.911 138.116C487.971 138.116 488.041 138.126 488.121 138.146C488.201 138.146 488.291 138.146 488.391 138.146L488.811 141.566C488.591 141.506 488.351 141.476 488.091 141.476C487.391 141.476 486.831 141.616 486.411 141.896C485.991 142.176 485.711 142.536 485.571 142.976C487.071 143.856 487.821 145.186 487.821 146.966C487.821 148.586 487.181 149.836 485.901 150.716C484.641 151.596 482.871 152.036 480.591 152.036C479.551 152.036 478.611 151.946 477.771 151.766C477.111 151.966 476.781 152.316 476.781 152.816C476.781 153.496 477.341 153.836 478.461 153.836H483.231ZM480.591 144.776C479.931 144.776 479.391 144.966 478.971 145.346C478.571 145.726 478.371 146.266 478.371 146.966C478.371 147.646 478.571 148.176 478.971 148.556C479.391 148.936 479.931 149.126 480.591 149.126C481.231 149.126 481.761 148.936 482.181 148.556C482.601 148.176 482.811 147.646 482.811 146.966C482.811 146.266 482.601 145.726 482.181 145.346C481.761 144.966 481.231 144.776 480.591 144.776ZM480.411 160.316C481.851 160.316 482.921 160.166 483.621 159.866C484.341 159.586 484.701 159.226 484.701 158.786C484.701 158.486 484.581 158.246 484.341 158.066C484.121 157.906 483.731 157.826 483.171 157.826H477.801C477.421 157.826 477.111 157.926 476.871 158.126C476.651 158.326 476.541 158.576 476.541 158.876C476.541 159.336 476.881 159.686 477.561 159.926C478.241 160.186 479.191 160.316 480.411 160.316ZM493.208 140.426C492.168 140.426 491.408 140.236 490.928 139.856C490.468 139.456 490.238 138.836 490.238 137.996C490.238 137.136 490.468 136.516 490.928 136.136C491.408 135.736 492.168 135.536 493.208 135.536C494.228 135.536 494.978 135.736 495.458 136.136C495.938 136.516 496.178 137.136 496.178 137.996C496.178 138.836 495.938 139.456 495.458 139.856C494.978 140.236 494.228 140.426 493.208 140.426ZM495.758 142.166V157.166H490.658V142.166H495.758ZM506.529 141.866C508.109 141.866 509.489 142.176 510.669 142.796C511.869 143.416 512.799 144.306 513.459 145.466C514.139 146.626 514.479 148.026 514.479 149.666C514.479 151.306 514.139 152.706 513.459 153.866C512.799 155.026 511.869 155.916 510.669 156.536C509.489 157.156 508.109 157.466 506.529 157.466C504.969 157.466 503.589 157.156 502.389 156.536C501.209 155.916 500.279 155.026 499.599 153.866C498.939 152.706 498.609 151.306 498.609 149.666C498.609 148.026 498.939 146.626 499.599 145.466C500.279 144.306 501.209 143.416 502.389 142.796C503.589 142.176 504.969 141.866 506.529 141.866ZM506.529 145.496C505.649 145.496 504.959 145.826 504.459 146.486C503.979 147.126 503.739 148.186 503.739 149.666C503.739 151.126 503.979 152.186 504.459 152.846C504.959 153.506 505.649 153.836 506.529 153.836C507.429 153.836 508.119 153.506 508.599 152.846C509.099 152.186 509.349 151.126 509.349 149.666C509.349 148.186 509.099 147.126 508.599 146.486C508.119 145.826 507.429 145.496 506.529 145.496ZM517.348 157.166V142.166H521.848L522.058 145.406C522.418 144.306 522.968 143.446 523.708 142.826C524.468 142.186 525.438 141.866 526.618 141.866C526.998 141.866 527.318 141.906 527.578 141.986C527.858 142.046 528.078 142.116 528.238 142.196L527.728 146.396C527.528 146.336 527.268 146.276 526.948 146.216C526.648 146.156 526.278 146.126 525.838 146.126C524.918 146.126 524.118 146.416 523.438 146.996C522.778 147.576 522.448 148.446 522.448 149.606V157.166H517.348ZM530.238 157.166V142.166H534.798L534.948 145.196C535.408 144.096 536.078 143.266 536.958 142.706C537.838 142.146 538.878 141.866 540.078 141.866C541.618 141.866 542.868 142.316 543.828 143.216C544.788 144.116 545.268 145.436 545.268 147.176V157.166H540.168V148.526C540.168 147.486 539.968 146.766 539.568 146.366C539.168 145.966 538.658 145.766 538.038 145.766C537.298 145.766 536.658 146.026 536.118 146.546C535.598 147.066 535.338 147.956 535.338 149.216V157.166H530.238ZM555.982 141.866C557.562 141.866 558.942 142.176 560.122 142.796C561.322 143.416 562.252 144.306 562.912 145.466C563.592 146.626 563.932 148.026 563.932 149.666C563.932 151.306 563.592 152.706 562.912 153.866C562.252 155.026 561.322 155.916 560.122 156.536C558.942 157.156 557.562 157.466 555.982 157.466C554.422 157.466 553.042 157.156 551.842 156.536C550.662 155.916 549.732 155.026 549.052 153.866C548.392 152.706 548.062 151.306 548.062 149.666C548.062 148.026 548.392 146.626 549.052 145.466C549.732 144.306 550.662 143.416 551.842 142.796C553.042 142.176 554.422 141.866 555.982 141.866ZM555.982 145.496C555.102 145.496 554.412 145.826 553.912 146.486C553.432 147.126 553.192 148.186 553.192 149.666C553.192 151.126 553.432 152.186 553.912 152.846C554.412 153.506 555.102 153.836 555.982 153.836C556.882 153.836 557.572 153.506 558.052 152.846C558.552 152.186 558.802 151.126 558.802 149.666C558.802 148.186 558.552 147.126 558.052 146.486C557.572 145.826 556.882 145.496 555.982 145.496ZM251.83 192.166V177.166H256.33L256.54 180.406C256.9 179.306 257.45 178.446 258.19 177.826C258.95 177.186 259.92 176.866 261.1 176.866C261.48 176.866 261.8 176.906 262.06 176.986C262.34 177.046 262.56 177.116 262.72 177.196L262.21 181.396C262.01 181.336 261.75 181.276 261.43 181.216C261.13 181.156 260.76 181.126 260.32 181.126C259.4 181.126 258.6 181.416 257.92 181.996C257.26 182.576 256.93 183.446 256.93 184.606V192.166H251.83ZM267.271 175.426C266.231 175.426 265.471 175.236 264.991 174.856C264.531 174.456 264.301 173.836 264.301 172.996C264.301 172.136 264.531 171.516 264.991 171.136C265.471 170.736 266.231 170.536 267.271 170.536C268.291 170.536 269.041 170.736 269.521 171.136C270.001 171.516 270.241 172.136 270.241 172.996C270.241 173.836 270.001 174.456 269.521 174.856C269.041 175.236 268.291 175.426 267.271 175.426ZM269.821 177.166V192.166H264.721V177.166H269.821ZM279.751 192.466C278.251 192.466 276.861 192.226 275.581 191.746C274.301 191.246 273.231 190.536 272.371 189.616L274.771 186.796C275.271 187.436 275.931 187.976 276.751 188.416C277.591 188.836 278.521 189.046 279.541 189.046C280.161 189.046 280.671 188.956 281.071 188.776C281.471 188.596 281.671 188.316 281.671 187.936C281.671 187.676 281.571 187.456 281.371 187.276C281.171 187.096 280.771 186.946 280.171 186.826L278.071 186.406C276.191 186.026 274.851 185.466 274.051 184.726C273.271 183.966 272.881 182.976 272.881 181.756C272.881 180.936 273.131 180.156 273.631 179.416C274.131 178.676 274.901 178.066 275.941 177.586C276.981 177.106 278.311 176.866 279.931 176.866C283.031 176.866 285.291 177.726 286.711 179.446L284.281 182.206C283.801 181.606 283.181 181.136 282.421 180.796C281.661 180.456 280.901 180.286 280.141 180.286C278.681 180.286 277.951 180.656 277.951 181.396C277.951 181.656 278.071 181.886 278.311 182.086C278.571 182.286 279.041 182.446 279.721 182.566L282.451 183.106C283.991 183.406 285.101 183.926 285.781 184.666C286.461 185.386 286.801 186.266 286.801 187.306C286.801 188.766 286.211 189.996 285.031 190.996C283.871 191.976 282.111 192.466 279.751 192.466ZM289.447 198.466V177.166H294.037L294.187 180.196C294.607 179.196 295.237 178.396 296.077 177.796C296.937 177.176 297.947 176.866 299.107 176.866C300.947 176.866 302.427 177.546 303.547 178.906C304.687 180.266 305.257 182.166 305.257 184.606C305.257 187.086 304.677 189.016 303.517 190.396C302.377 191.776 300.887 192.466 299.047 192.466C297.967 192.466 297.047 192.206 296.287 191.686C295.527 191.146 294.947 190.446 294.547 189.586V198.466H289.447ZM297.307 188.716C298.187 188.716 298.877 188.396 299.377 187.756C299.877 187.096 300.127 186.066 300.127 184.666C300.127 183.266 299.877 182.246 299.377 181.606C298.897 180.946 298.217 180.616 297.337 180.616C296.477 180.616 295.797 180.966 295.297 181.666C294.797 182.346 294.547 183.346 294.547 184.666C294.547 185.926 294.787 186.916 295.267 187.636C295.747 188.356 296.427 188.716 297.307 188.716ZM316.479 182.656C316.479 181.956 316.279 181.406 315.879 181.006C315.499 180.586 314.979 180.376 314.319 180.376C313.659 180.376 313.089 180.546 312.609 180.886C312.149 181.206 311.829 181.786 311.649 182.626L307.329 181.606C307.609 180.166 308.349 179.016 309.549 178.156C310.749 177.296 312.439 176.866 314.619 176.866C316.819 176.866 318.519 177.356 319.719 178.336C320.939 179.296 321.549 180.706 321.549 182.566V188.056C321.549 188.836 321.899 189.226 322.599 189.226C322.959 189.226 323.249 189.186 323.469 189.106L323.169 192.016C322.569 192.296 321.839 192.436 320.979 192.436C320.039 192.436 319.229 192.256 318.549 191.896C317.869 191.516 317.409 190.946 317.169 190.186C316.749 190.966 316.079 191.546 315.159 191.926C314.259 192.286 313.299 192.466 312.279 192.466C310.739 192.466 309.509 192.116 308.589 191.416C307.689 190.696 307.239 189.666 307.239 188.326C307.239 187.246 307.559 186.356 308.199 185.656C308.859 184.936 309.889 184.436 311.289 184.156L316.479 183.076V182.656ZM312.279 187.846C312.279 188.286 312.439 188.616 312.759 188.836C313.079 189.056 313.459 189.166 313.899 189.166C314.579 189.166 315.179 188.966 315.699 188.566C316.219 188.146 316.479 187.496 316.479 186.616V185.776L314.049 186.286C313.449 186.406 312.999 186.586 312.699 186.826C312.419 187.046 312.279 187.386 312.279 187.846ZM325.482 192.166V177.166H329.982L330.192 180.406C330.552 179.306 331.102 178.446 331.842 177.826C332.602 177.186 333.572 176.866 334.752 176.866C335.132 176.866 335.452 176.906 335.712 176.986C335.992 177.046 336.212 177.116 336.372 177.196L335.862 181.396C335.662 181.336 335.402 181.276 335.082 181.216C334.782 181.156 334.412 181.126 333.972 181.126C333.052 181.126 332.252 181.416 331.572 181.996C330.912 182.576 330.582 183.446 330.582 184.606V192.166H325.482ZM338.373 192.166V177.166H342.933L343.083 180.076C343.563 179.016 344.233 178.216 345.093 177.676C345.973 177.136 346.983 176.866 348.123 176.866C349.223 176.866 350.183 177.116 351.003 177.616C351.843 178.116 352.463 178.856 352.863 179.836C353.323 178.856 354.003 178.116 354.903 177.616C355.823 177.116 356.823 176.866 357.903 176.866C359.383 176.866 360.603 177.316 361.563 178.216C362.543 179.096 363.033 180.416 363.033 182.176V192.166H357.933V183.346C357.933 182.386 357.743 181.716 357.363 181.336C356.983 180.956 356.493 180.766 355.893 180.766C355.133 180.766 354.503 181.056 354.003 181.636C353.503 182.196 353.253 183.036 353.253 184.156V192.166H348.153V183.346C348.153 182.386 347.963 181.716 347.583 181.336C347.203 180.956 346.713 180.766 346.113 180.766C345.413 180.766 344.793 181.036 344.253 181.576C343.733 182.116 343.473 183.006 343.473 184.246V192.166H338.373ZM369.165 175.426C368.125 175.426 367.365 175.236 366.885 174.856C366.425 174.456 366.195 173.836 366.195 172.996C366.195 172.136 366.425 171.516 366.885 171.136C367.365 170.736 368.125 170.536 369.165 170.536C370.185 170.536 370.935 170.736 371.415 171.136C371.895 171.516 372.135 172.136 372.135 172.996C372.135 173.836 371.895 174.456 371.415 174.856C370.935 175.236 370.185 175.426 369.165 175.426ZM371.715 177.166V192.166H366.615V177.166H371.715ZM383.716 182.656C383.716 181.956 383.516 181.406 383.116 181.006C382.736 180.586 382.216 180.376 381.556 180.376C380.896 180.376 380.326 180.546 379.846 180.886C379.386 181.206 379.066 181.786 378.886 182.626L374.566 181.606C374.846 180.166 375.586 179.016 376.786 178.156C377.986 177.296 379.676 176.866 381.856 176.866C384.056 176.866 385.756 177.356 386.956 178.336C388.176 179.296 388.786 180.706 388.786 182.566V188.056C388.786 188.836 389.136 189.226 389.836 189.226C390.196 189.226 390.486 189.186 390.706 189.106L390.406 192.016C389.806 192.296 389.076 192.436 388.216 192.436C387.276 192.436 386.466 192.256 385.786 191.896C385.106 191.516 384.646 190.946 384.406 190.186C383.986 190.966 383.316 191.546 382.396 191.926C381.496 192.286 380.536 192.466 379.516 192.466C377.976 192.466 376.746 192.116 375.826 191.416C374.926 190.696 374.476 189.666 374.476 188.326C374.476 187.246 374.796 186.356 375.436 185.656C376.096 184.936 377.126 184.436 378.526 184.156L383.716 183.076V182.656ZM379.516 187.846C379.516 188.286 379.676 188.616 379.996 188.836C380.316 189.056 380.696 189.166 381.136 189.166C381.816 189.166 382.416 188.966 382.936 188.566C383.456 188.146 383.716 187.496 383.716 186.616V185.776L381.286 186.286C380.686 186.406 380.236 186.586 379.936 186.826C379.656 187.046 379.516 187.386 379.516 187.846ZM402.873 177.166V180.796H398.403V186.826C398.403 187.546 398.573 188.066 398.913 188.386C399.273 188.686 399.763 188.836 400.383 188.836C400.863 188.836 401.273 188.786 401.613 188.686C401.953 188.566 402.273 188.396 402.573 188.176L403.113 191.326C402.613 191.666 401.973 191.946 401.193 192.166C400.433 192.366 399.663 192.466 398.883 192.466C397.163 192.466 395.803 192.106 394.803 191.386C393.823 190.646 393.323 189.406 393.303 187.666V180.796H390.723V177.166H393.303V173.806L398.403 172.396V177.166H402.873ZM412.548 192.466C410.048 192.466 408.068 191.786 406.608 190.426C405.168 189.066 404.448 187.146 404.448 184.666C404.448 183.026 404.778 181.626 405.438 180.466C406.118 179.286 407.038 178.396 408.198 177.796C409.378 177.176 410.748 176.866 412.308 176.866C413.888 176.866 415.228 177.176 416.328 177.796C417.448 178.396 418.298 179.236 418.878 180.316C419.458 181.376 419.748 182.596 419.748 183.976C419.748 184.356 419.728 184.726 419.688 185.086C419.668 185.426 419.648 185.716 419.628 185.956H409.398C409.538 186.996 409.878 187.746 410.418 188.206C410.958 188.646 411.668 188.866 412.548 188.866C413.308 188.866 413.908 188.716 414.348 188.416C414.808 188.116 415.148 187.696 415.368 187.156L419.448 188.506C419.168 189.366 418.678 190.096 417.978 190.696C417.298 191.276 416.478 191.716 415.518 192.016C414.578 192.316 413.588 192.466 412.548 192.466ZM412.308 180.436C410.688 180.436 409.728 181.366 409.428 183.226H414.918C414.698 181.366 413.828 180.436 412.308 180.436ZM436.705 192.466C434.845 192.466 433.345 191.786 432.205 190.426C431.085 189.066 430.525 187.166 430.525 184.726C430.525 183.046 430.785 181.626 431.305 180.466C431.845 179.286 432.585 178.396 433.525 177.796C434.485 177.176 435.585 176.866 436.825 176.866C437.885 176.866 438.785 177.126 439.525 177.646C440.285 178.166 440.855 178.856 441.235 179.716V170.806H446.335V192.166H441.775L441.595 189.226C441.175 190.226 440.535 191.016 439.675 191.596C438.835 192.176 437.845 192.466 436.705 192.466ZM438.475 188.716C439.315 188.716 439.985 188.366 440.485 187.666C440.985 186.966 441.235 185.936 441.235 184.576C441.235 183.316 440.995 182.346 440.515 181.666C440.035 180.966 439.365 180.616 438.505 180.616C437.625 180.616 436.925 180.946 436.405 181.606C435.905 182.246 435.655 183.266 435.655 184.666C435.655 186.066 435.905 187.096 436.405 187.756C436.905 188.396 437.595 188.716 438.475 188.716ZM458.364 182.656C458.364 181.956 458.164 181.406 457.764 181.006C457.384 180.586 456.864 180.376 456.204 180.376C455.544 180.376 454.974 180.546 454.494 180.886C454.034 181.206 453.714 181.786 453.534 182.626L449.214 181.606C449.494 180.166 450.234 179.016 451.434 178.156C452.634 177.296 454.324 176.866 456.504 176.866C458.704 176.866 460.404 177.356 461.604 178.336C462.824 179.296 463.434 180.706 463.434 182.566V188.056C463.434 188.836 463.784 189.226 464.484 189.226C464.844 189.226 465.134 189.186 465.354 189.106L465.054 192.016C464.454 192.296 463.724 192.436 462.864 192.436C461.924 192.436 461.114 192.256 460.434 191.896C459.754 191.516 459.294 190.946 459.054 190.186C458.634 190.966 457.964 191.546 457.044 191.926C456.144 192.286 455.184 192.466 454.164 192.466C452.624 192.466 451.394 192.116 450.474 191.416C449.574 190.696 449.124 189.666 449.124 188.326C449.124 187.246 449.444 186.356 450.084 185.656C450.744 184.936 451.774 184.436 453.174 184.156L458.364 183.076V182.656ZM454.164 187.846C454.164 188.286 454.324 188.616 454.644 188.836C454.964 189.056 455.344 189.166 455.784 189.166C456.464 189.166 457.064 188.966 457.584 188.566C458.104 188.146 458.364 187.496 458.364 186.616V185.776L455.934 186.286C455.334 186.406 454.884 186.586 454.584 186.826C454.304 187.046 454.164 187.386 454.164 187.846ZM482.797 176.866C484.317 176.866 485.577 177.086 486.577 177.526C487.597 177.966 488.387 178.536 488.947 179.236C489.507 179.936 489.867 180.696 490.027 181.516L485.317 183.076C485.197 182.216 484.947 181.576 484.567 181.156C484.187 180.716 483.647 180.496 482.947 180.496C481.987 180.496 481.257 180.836 480.757 181.516C480.277 182.196 480.037 183.266 480.037 184.726C480.037 186.206 480.297 187.266 480.817 187.906C481.357 188.526 482.077 188.836 482.977 188.836C484.397 188.836 485.227 188.026 485.467 186.406L490.057 187.876C489.837 189.176 489.107 190.266 487.867 191.146C486.647 192.026 485.027 192.466 483.007 192.466C480.547 192.466 478.577 191.786 477.097 190.426C475.637 189.046 474.907 187.126 474.907 184.666C474.907 183.026 475.237 181.626 475.897 180.466C476.577 179.306 477.507 178.416 478.687 177.796C479.867 177.176 481.237 176.866 482.797 176.866ZM492.709 192.166V170.806H497.809V179.896C498.249 178.896 498.879 178.146 499.699 177.646C500.519 177.126 501.469 176.866 502.549 176.866C504.089 176.866 505.339 177.316 506.299 178.216C507.259 179.116 507.739 180.436 507.739 182.176V192.166H502.639V183.586C502.639 182.506 502.439 181.766 502.039 181.366C501.659 180.946 501.149 180.736 500.509 180.736C499.789 180.736 499.159 181.016 498.619 181.576C498.079 182.116 497.809 183.016 497.809 184.276V192.166H492.709ZM513.862 175.426C512.822 175.426 512.062 175.236 511.582 174.856C511.122 174.456 510.892 173.836 510.892 172.996C510.892 172.136 511.122 171.516 511.582 171.136C512.062 170.736 512.822 170.536 513.862 170.536C514.882 170.536 515.632 170.736 516.112 171.136C516.592 171.516 516.832 172.136 516.832 172.996C516.832 173.836 516.592 174.456 516.112 174.856C515.632 175.236 514.882 175.426 513.862 175.426ZM516.412 177.166V192.166H511.312V177.166H516.412ZM251.83 227.166V205.806H256.93V214.896C257.37 213.896 258 213.146 258.82 212.646C259.64 212.126 260.59 211.866 261.67 211.866C263.21 211.866 264.46 212.316 265.42 213.216C266.38 214.116 266.86 215.436 266.86 217.176V227.166H261.76V218.586C261.76 217.506 261.56 216.766 261.16 216.366C260.78 215.946 260.27 215.736 259.63 215.736C258.91 215.736 258.28 216.016 257.74 216.576C257.2 217.116 256.93 218.016 256.93 219.276V227.166H251.83ZM278.804 217.656C278.804 216.956 278.604 216.406 278.204 216.006C277.824 215.586 277.304 215.376 276.644 215.376C275.984 215.376 275.414 215.546 274.934 215.886C274.474 216.206 274.154 216.786 273.974 217.626L269.654 216.606C269.934 215.166 270.674 214.016 271.874 213.156C273.074 212.296 274.764 211.866 276.944 211.866C279.144 211.866 280.844 212.356 282.044 213.336C283.264 214.296 283.874 215.706 283.874 217.566V223.056C283.874 223.836 284.224 224.226 284.924 224.226C285.284 224.226 285.574 224.186 285.794 224.106L285.494 227.016C284.894 227.296 284.164 227.436 283.304 227.436C282.364 227.436 281.554 227.256 280.874 226.896C280.194 226.516 279.734 225.946 279.494 225.186C279.074 225.966 278.404 226.546 277.484 226.926C276.584 227.286 275.624 227.466 274.604 227.466C273.064 227.466 271.834 227.116 270.914 226.416C270.014 225.696 269.564 224.666 269.564 223.326C269.564 222.246 269.884 221.356 270.524 220.656C271.184 219.936 272.214 219.436 273.614 219.156L278.804 218.076V217.656ZM274.604 222.846C274.604 223.286 274.764 223.616 275.084 223.836C275.404 224.056 275.784 224.166 276.224 224.166C276.904 224.166 277.504 223.966 278.024 223.566C278.544 223.146 278.804 222.496 278.804 221.616V220.776L276.374 221.286C275.774 221.406 275.324 221.586 275.024 221.826C274.744 222.046 274.604 222.386 274.604 222.846ZM301.167 205.806V222.066C301.167 222.726 301.277 223.196 301.497 223.476C301.717 223.756 302.087 223.896 302.607 223.896C302.907 223.896 303.157 223.876 303.357 223.836C303.557 223.796 303.797 223.736 304.077 223.656L303.747 226.716C303.387 226.936 302.917 227.116 302.337 227.256C301.757 227.396 301.187 227.466 300.627 227.466C299.027 227.466 297.867 227.096 297.147 226.356C296.427 225.616 296.067 224.406 296.067 222.726V205.806H301.167ZM314.546 217.656C314.546 216.956 314.346 216.406 313.946 216.006C313.566 215.586 313.046 215.376 312.386 215.376C311.726 215.376 311.156 215.546 310.676 215.886C310.216 216.206 309.896 216.786 309.716 217.626L305.396 216.606C305.676 215.166 306.416 214.016 307.616 213.156C308.816 212.296 310.506 211.866 312.686 211.866C314.886 211.866 316.586 212.356 317.786 213.336C319.006 214.296 319.616 215.706 319.616 217.566V223.056C319.616 223.836 319.966 224.226 320.666 224.226C321.026 224.226 321.316 224.186 321.536 224.106L321.236 227.016C320.636 227.296 319.906 227.436 319.046 227.436C318.106 227.436 317.296 227.256 316.616 226.896C315.936 226.516 315.476 225.946 315.236 225.186C314.816 225.966 314.146 226.546 313.226 226.926C312.326 227.286 311.366 227.466 310.346 227.466C308.806 227.466 307.576 227.116 306.656 226.416C305.756 225.696 305.306 224.666 305.306 223.326C305.306 222.246 305.626 221.356 306.266 220.656C306.926 219.936 307.956 219.436 309.356 219.156L314.546 218.076V217.656ZM310.346 222.846C310.346 223.286 310.506 223.616 310.826 223.836C311.146 224.056 311.526 224.166 311.966 224.166C312.646 224.166 313.246 223.966 313.766 223.566C314.286 223.146 314.546 222.496 314.546 221.616V220.776L312.116 221.286C311.516 221.406 311.066 221.586 310.766 221.826C310.486 222.046 310.346 222.386 310.346 222.846ZM332.625 212.166H337.905L332.505 227.166H326.415L321.015 212.166H326.385L329.475 223.596L332.625 212.166ZM346.568 211.866C348.148 211.866 349.528 212.176 350.708 212.796C351.908 213.416 352.838 214.306 353.498 215.466C354.178 216.626 354.518 218.026 354.518 219.666C354.518 221.306 354.178 222.706 353.498 223.866C352.838 225.026 351.908 225.916 350.708 226.536C349.528 227.156 348.148 227.466 346.568 227.466C345.008 227.466 343.628 227.156 342.428 226.536C341.248 225.916 340.318 225.026 339.638 223.866C338.978 222.706 338.648 221.306 338.648 219.666C338.648 218.026 338.978 216.626 339.638 215.466C340.318 214.306 341.248 213.416 342.428 212.796C343.628 212.176 345.008 211.866 346.568 211.866ZM346.568 215.496C345.688 215.496 344.998 215.826 344.498 216.486C344.018 217.126 343.778 218.186 343.778 219.666C343.778 221.126 344.018 222.186 344.498 222.846C344.998 223.506 345.688 223.836 346.568 223.836C347.468 223.836 348.158 223.506 348.638 222.846C349.138 222.186 349.388 221.126 349.388 219.666C349.388 218.186 349.138 217.126 348.638 216.486C348.158 215.826 347.468 215.496 346.568 215.496ZM357.387 227.166V212.166H361.887L362.097 215.406C362.457 214.306 363.007 213.446 363.747 212.826C364.507 212.186 365.477 211.866 366.657 211.866C367.037 211.866 367.357 211.906 367.617 211.986C367.897 212.046 368.117 212.116 368.277 212.196L367.767 216.396C367.567 216.336 367.307 216.276 366.987 216.216C366.687 216.156 366.317 216.126 365.877 216.126C364.957 216.126 364.157 216.416 363.477 216.996C362.817 217.576 362.487 218.446 362.487 219.606V227.166H357.387ZM378.471 217.656C378.471 216.956 378.271 216.406 377.871 216.006C377.491 215.586 376.971 215.376 376.311 215.376C375.651 215.376 375.081 215.546 374.601 215.886C374.141 216.206 373.821 216.786 373.641 217.626L369.321 216.606C369.601 215.166 370.341 214.016 371.541 213.156C372.741 212.296 374.431 211.866 376.611 211.866C378.811 211.866 380.511 212.356 381.711 213.336C382.931 214.296 383.541 215.706 383.541 217.566V223.056C383.541 223.836 383.891 224.226 384.591 224.226C384.951 224.226 385.241 224.186 385.461 224.106L385.161 227.016C384.561 227.296 383.831 227.436 382.971 227.436C382.031 227.436 381.221 227.256 380.541 226.896C379.861 226.516 379.401 225.946 379.161 225.186C378.741 225.966 378.071 226.546 377.151 226.926C376.251 227.286 375.291 227.466 374.271 227.466C372.731 227.466 371.501 227.116 370.581 226.416C369.681 225.696 369.231 224.666 369.231 223.326C369.231 222.246 369.551 221.356 370.191 220.656C370.851 219.936 371.881 219.436 373.281 219.156L378.471 218.076V217.656ZM374.271 222.846C374.271 223.286 374.431 223.616 374.751 223.836C375.071 224.056 375.451 224.166 375.891 224.166C376.571 224.166 377.171 223.966 377.691 223.566C378.211 223.146 378.471 222.496 378.471 221.616V220.776L376.041 221.286C375.441 221.406 374.991 221.586 374.691 221.826C374.411 222.046 374.271 222.386 374.271 222.846ZM397.629 212.166V215.796H393.159V221.826C393.159 222.546 393.329 223.066 393.669 223.386C394.029 223.686 394.519 223.836 395.139 223.836C395.619 223.836 396.029 223.786 396.369 223.686C396.709 223.566 397.029 223.396 397.329 223.176L397.869 226.326C397.369 226.666 396.729 226.946 395.949 227.166C395.189 227.366 394.419 227.466 393.639 227.466C391.919 227.466 390.559 227.106 389.559 226.386C388.579 225.646 388.079 224.406 388.059 222.666V215.796H385.479V212.166H388.059V208.806L393.159 207.396V212.166H397.629ZM407.124 211.866C408.704 211.866 410.084 212.176 411.264 212.796C412.464 213.416 413.394 214.306 414.054 215.466C414.734 216.626 415.074 218.026 415.074 219.666C415.074 221.306 414.734 222.706 414.054 223.866C413.394 225.026 412.464 225.916 411.264 226.536C410.084 227.156 408.704 227.466 407.124 227.466C405.564 227.466 404.184 227.156 402.984 226.536C401.804 225.916 400.874 225.026 400.194 223.866C399.534 222.706 399.204 221.306 399.204 219.666C399.204 218.026 399.534 216.626 400.194 215.466C400.874 214.306 401.804 213.416 402.984 212.796C404.184 212.176 405.564 211.866 407.124 211.866ZM407.124 215.496C406.244 215.496 405.554 215.826 405.054 216.486C404.574 217.126 404.334 218.186 404.334 219.666C404.334 221.126 404.574 222.186 405.054 222.846C405.554 223.506 406.244 223.836 407.124 223.836C408.024 223.836 408.714 223.506 409.194 222.846C409.694 222.186 409.944 221.126 409.944 219.666C409.944 218.186 409.694 217.126 409.194 216.486C408.714 215.826 408.024 215.496 407.124 215.496ZM432.047 227.466C430.187 227.466 428.687 226.786 427.547 225.426C426.427 224.066 425.867 222.166 425.867 219.726C425.867 218.046 426.127 216.626 426.647 215.466C427.187 214.286 427.927 213.396 428.867 212.796C429.827 212.176 430.927 211.866 432.167 211.866C433.227 211.866 434.127 212.126 434.867 212.646C435.627 213.166 436.197 213.856 436.577 214.716V205.806H441.677V227.166H437.117L436.937 224.226C436.517 225.226 435.877 226.016 435.017 226.596C434.177 227.176 433.187 227.466 432.047 227.466ZM433.817 223.716C434.657 223.716 435.327 223.366 435.827 222.666C436.327 221.966 436.577 220.936 436.577 219.576C436.577 218.316 436.337 217.346 435.857 216.666C435.377 215.966 434.707 215.616 433.847 215.616C432.967 215.616 432.267 215.946 431.747 216.606C431.247 217.246 430.997 218.266 430.997 219.666C430.997 221.066 431.247 222.096 431.747 222.756C432.247 223.396 432.937 223.716 433.817 223.716ZM453.706 217.656C453.706 216.956 453.506 216.406 453.106 216.006C452.726 215.586 452.206 215.376 451.546 215.376C450.886 215.376 450.316 215.546 449.836 215.886C449.376 216.206 449.056 216.786 448.876 217.626L444.556 216.606C444.836 215.166 445.576 214.016 446.776 213.156C447.976 212.296 449.666 211.866 451.846 211.866C454.046 211.866 455.746 212.356 456.946 213.336C458.166 214.296 458.776 215.706 458.776 217.566V223.056C458.776 223.836 459.126 224.226 459.826 224.226C460.186 224.226 460.476 224.186 460.696 224.106L460.396 227.016C459.796 227.296 459.066 227.436 458.206 227.436C457.266 227.436 456.456 227.256 455.776 226.896C455.096 226.516 454.636 225.946 454.396 225.186C453.976 225.966 453.306 226.546 452.386 226.926C451.486 227.286 450.526 227.466 449.506 227.466C447.966 227.466 446.736 227.116 445.816 226.416C444.916 225.696 444.466 224.666 444.466 223.326C444.466 222.246 444.786 221.356 445.426 220.656C446.086 219.936 447.116 219.436 448.516 219.156L453.706 218.076V217.656ZM449.506 222.846C449.506 223.286 449.666 223.616 449.986 223.836C450.306 224.056 450.686 224.166 451.126 224.166C451.806 224.166 452.406 223.966 452.926 223.566C453.446 223.146 453.706 222.496 453.706 221.616V220.776L451.276 221.286C450.676 221.406 450.226 221.586 449.926 221.826C449.646 222.046 449.506 222.386 449.506 222.846ZM478.139 211.866C479.659 211.866 480.919 212.086 481.919 212.526C482.939 212.966 483.729 213.536 484.289 214.236C484.849 214.936 485.209 215.696 485.369 216.516L480.659 218.076C480.539 217.216 480.289 216.576 479.909 216.156C479.529 215.716 478.989 215.496 478.289 215.496C477.329 215.496 476.599 215.836 476.099 216.516C475.619 217.196 475.379 218.266 475.379 219.726C475.379 221.206 475.639 222.266 476.159 222.906C476.699 223.526 477.419 223.836 478.319 223.836C479.739 223.836 480.569 223.026 480.809 221.406L485.399 222.876C485.179 224.176 484.449 225.266 483.209 226.146C481.989 227.026 480.369 227.466 478.349 227.466C475.889 227.466 473.919 226.786 472.439 225.426C470.979 224.046 470.249 222.126 470.249 219.666C470.249 218.026 470.579 216.626 471.239 215.466C471.919 214.306 472.849 213.416 474.029 212.796C475.209 212.176 476.579 211.866 478.139 211.866ZM496.421 217.656C496.421 216.956 496.221 216.406 495.821 216.006C495.441 215.586 494.921 215.376 494.261 215.376C493.601 215.376 493.031 215.546 492.551 215.886C492.091 216.206 491.771 216.786 491.591 217.626L487.271 216.606C487.551 215.166 488.291 214.016 489.491 213.156C490.691 212.296 492.381 211.866 494.561 211.866C496.761 211.866 498.461 212.356 499.661 213.336C500.881 214.296 501.491 215.706 501.491 217.566V223.056C501.491 223.836 501.841 224.226 502.541 224.226C502.901 224.226 503.191 224.186 503.411 224.106L503.111 227.016C502.511 227.296 501.781 227.436 500.921 227.436C499.981 227.436 499.171 227.256 498.491 226.896C497.811 226.516 497.351 225.946 497.111 225.186C496.691 225.966 496.021 226.546 495.101 226.926C494.201 227.286 493.241 227.466 492.221 227.466C490.681 227.466 489.451 227.116 488.531 226.416C487.631 225.696 487.181 224.666 487.181 223.326C487.181 222.246 487.501 221.356 488.141 220.656C488.801 219.936 489.831 219.436 491.231 219.156L496.421 218.076V217.656ZM492.221 222.846C492.221 223.286 492.381 223.616 492.701 223.836C493.021 224.056 493.401 224.166 493.841 224.166C494.521 224.166 495.121 223.966 495.641 223.566C496.161 223.146 496.421 222.496 496.421 221.616V220.776L493.991 221.286C493.391 221.406 492.941 221.586 492.641 221.826C492.361 222.046 492.221 222.386 492.221 222.846ZM511.724 227.466C510.224 227.466 508.834 227.226 507.554 226.746C506.274 226.246 505.204 225.536 504.344 224.616L506.744 221.796C507.244 222.436 507.904 222.976 508.724 223.416C509.564 223.836 510.494 224.046 511.514 224.046C512.134 224.046 512.644 223.956 513.044 223.776C513.444 223.596 513.644 223.316 513.644 222.936C513.644 222.676 513.544 222.456 513.344 222.276C513.144 222.096 512.744 221.946 512.144 221.826L510.044 221.406C508.164 221.026 506.824 220.466 506.024 219.726C505.244 218.966 504.854 217.976 504.854 216.756C504.854 215.936 505.104 215.156 505.604 214.416C506.104 213.676 506.874 213.066 507.914 212.586C508.954 212.106 510.284 211.866 511.904 211.866C515.004 211.866 517.264 212.726 518.684 214.446L516.254 217.206C515.774 216.606 515.154 216.136 514.394 215.796C513.634 215.456 512.874 215.286 512.114 215.286C510.654 215.286 509.924 215.656 509.924 216.396C509.924 216.656 510.044 216.886 510.284 217.086C510.544 217.286 511.014 217.446 511.694 217.566L514.424 218.106C515.964 218.406 517.074 218.926 517.754 219.666C518.434 220.386 518.774 221.266 518.774 222.306C518.774 223.766 518.184 224.996 517.004 225.996C515.844 226.976 514.084 227.466 511.724 227.466ZM529.79 217.656C529.79 216.956 529.59 216.406 529.19 216.006C528.81 215.586 528.29 215.376 527.63 215.376C526.97 215.376 526.4 215.546 525.92 215.886C525.46 216.206 525.14 216.786 524.96 217.626L520.64 216.606C520.92 215.166 521.66 214.016 522.86 213.156C524.06 212.296 525.75 211.866 527.93 211.866C530.13 211.866 531.83 212.356 533.03 213.336C534.25 214.296 534.86 215.706 534.86 217.566V223.056C534.86 223.836 535.21 224.226 535.91 224.226C536.27 224.226 536.56 224.186 536.78 224.106L536.48 227.016C535.88 227.296 535.15 227.436 534.29 227.436C533.35 227.436 532.54 227.256 531.86 226.896C531.18 226.516 530.72 225.946 530.48 225.186C530.06 225.966 529.39 226.546 528.47 226.926C527.57 227.286 526.61 227.466 525.59 227.466C524.05 227.466 522.82 227.116 521.9 226.416C521 225.696 520.55 224.666 520.55 223.326C520.55 222.246 520.87 221.356 521.51 220.656C522.17 219.936 523.2 219.436 524.6 219.156L529.79 218.076V217.656ZM525.59 222.846C525.59 223.286 525.75 223.616 526.07 223.836C526.39 224.056 526.77 224.166 527.21 224.166C527.89 224.166 528.49 223.966 529.01 223.566C529.53 223.146 529.79 222.496 529.79 221.616V220.776L527.36 221.286C526.76 221.406 526.31 221.586 526.01 221.826C525.73 222.046 525.59 222.386 525.59 222.846ZM541.84 222.006C542.78 222.006 543.51 222.246 544.03 222.726C544.57 223.206 544.84 223.876 544.84 224.736C544.84 225.576 544.57 226.236 544.03 226.716C543.51 227.196 542.78 227.436 541.84 227.436C540.9 227.436 540.16 227.196 539.62 226.716C539.1 226.236 538.84 225.576 538.84 224.736C538.84 223.876 539.1 223.206 539.62 222.726C540.16 222.246 540.9 222.006 541.84 222.006Z" fill="black"/>
</svg>
